<svg xmlns="http://www.w3.org/2000/svg" viewBox="0 0 829 829"><title>logo_with_text</title><circle cx="414.5" cy="414.5" r="414.5" style="fill:#e74c3c"/><path d="M205,293.7a25.9,25.9,0,0,0,7.4-18.8,21,21,0,0,0-21.6-20.6h0a17.6,17.6,0,0,0-17.1,17.9,6.9,6.9,0,0,0,13.8.1v-.4a3.7,3.7,0,0,1,3.6-3.9h0a7.2,7.2,0,0,1,7.6,7.1h0a12.4,12.4,0,0,1-3.5,8.9,11.2,11.2,0,0,1-8.2,3.5H108a6.9,6.9,0,0,0-6.5,7.3,6.7,6.7,0,0,0,6.5,6.4h79A24.4,24.4,0,0,0,205,293.7Z" style="fill:#fff"/><path d="M162,251.8H115.8a6.9,6.9,0,0,0,0,13.7H162a6.9,6.9,0,0,0,7.4-6.3,6.9,6.9,0,0,0-6.3-7.4H162Z" style="fill:#fff"/><path d="M120.3,332.2h37a6.8,6.8,0,0,0,6.5-7.2,6.9,6.9,0,0,0-6.5-6.5h-37a6.9,6.9,0,0,0-6.5,7.3A6.7,6.7,0,0,0,120.3,332.2Z" style="fill:#fff"/><path d="M450.4,516.5a21.1,21.1,0,0,0-15.1-5.8,17.4,17.4,0,0,0-17,17.9h0a6.9,6.9,0,0,0,13.7.7v-1a3.9,3.9,0,0,1,3.7-3.9,7.4,7.4,0,0,1,7.5,7.2,12.4,12.4,0,0,1-3.5,8.9,11.2,11.2,0,0,1-8.1,3.5H367.1a6.9,6.9,0,0,0-.6,13.7h65.1a24.9,24.9,0,0,0,18-7.6,26.7,26.7,0,0,0,7.4-18.9A21.3,21.3,0,0,0,450.4,516.5Z" style="fill:#fff"/><path d="M331.8,546.1a6.9,6.9,0,1,0,4.8-2A6.7,6.7,0,0,0,331.8,546.1Z" style="fill:#fff"/><path d="M382.4,571.5H316.2a6.8,6.8,0,0,0-6.5,7.2,6.9,6.9,0,0,0,6.5,6.5h66.1a6.9,6.9,0,0,0,.6-13.7Z" style="fill:#fff"/><path d="M442.1,334.4a5.4,5.4,0,1,0-10.6,1.9.8.8,0,0,0,.1.4.4.4,0,0,0,.1.3,112.3,112.3,0,0,1-22.4,98.8c-10.1,10.5-21.2,14-29,11.5a17,17,0,0,1-7.3-5.1,181.2,181.2,0,0,0,12.6-18.8,5.5,5.5,0,0,0-2.3-7.3,5.4,5.4,0,0,0-7.1,1.9h0a139.2,139.2,0,0,1-18,25c-4.7,2.4-8.8,3-12.2,1.9-5.4-1.8-8.7-7.9-10.6-13.5a381.6,381.6,0,0,0,23-55.3c10.1-30.3,16.2-60,17.4-83.6a107.5,107.5,0,0,0-1.4-25.3c9.3,8.4,16.4,20.7,20.5,36.3,6.6,24.7,4.9,54.2-4.7,83.1-1.5,4.7-3.3,9.3-5.2,13.7a5.6,5.6,0,0,0,3.1,7,5.4,5.4,0,0,0,6.8-2.7c2-4.8,3.9-9.6,5.5-14.6,10.2-30.9,11.9-62.6,4.9-89.3a102.9,102.9,0,0,0-7.6-20,112.7,112.7,0,0,1,28.1,39.2,5.4,5.4,0,0,0,9.9-4.2,123.8,123.8,0,0,0-74.8-68.6c-64.7-21.4-134.7,13.7-156.1,78.2-17,51.1,1.7,105.7,42.4,136.7l-.8,18.5a15.5,15.5,0,0,0,10.1,14.6l1.8.6-5.5,16.8-6-2a12.3,12.3,0,0,0-15.7,7.9l-2.2,6.6a12.4,12.4,0,0,0,3.2,12.9L225.2,559a12.5,12.5,0,0,0,7.8,15.8h0l34.9,11.6a12.6,12.6,0,0,0,15.8-8h0l7-21.1a12.3,12.3,0,0,0,10.2-8.4l2.2-6.7a12.5,12.5,0,0,0-7.8-15.8h-.1l-6-2,5.5-16.7,1.8.6a15.4,15.4,0,0,0,16.9-5.7l10.4-15.3A123.1,123.1,0,0,0,442.1,334.4ZM337.9,255.2c-6.7,6.1-14.5,16-23.3,31.3a5.4,5.4,0,0,0,9.3,5.4h0c15.2-26.4,28.1-36.4,33.7-34.6,4.1,1.4,8.6,11.3,7.5,34.7s-7.1,51.3-16.9,80.7a357.1,357.1,0,0,1-23,55c-7.7,3.4-15.1,4.3-21.8,2.9a5.4,5.4,0,0,0-2.9,10.3l.6.2a43.6,43.6,0,0,0,16.5.2l-4,6.2c-13,19.4-22.6,24.7-26.7,23.3s-8.7-11.3-7.6-34.6c.2-2.4.3-4.9.5-7.4l1.4,1.4a5.7,5.7,0,0,0,2.1,1.3,5.5,5.5,0,0,0,6.8-3.4,5.7,5.7,0,0,0-1.3-5.6,40.9,40.9,0,0,1-7-9.1,360.4,360.4,0,0,1,14.4-57.9,385.1,385.1,0,0,1,19.1-47.2,5.4,5.4,0,0,0-2.6-7.2,5.3,5.3,0,0,0-7,2.1l-.2.4a399.7,399.7,0,0,0-19.6,48.5,386.9,386.9,0,0,0-14.5,58.2c-4.9,3.2-11.2,6.2-16.6,4.5q-5.1-1.8-8.7-9c-1.9-20.2.8-42.4,8-64.2,9.6-28.9,25.9-53.6,45.9-69.5,12.5-10,25.5-15.8,37.9-16.9ZM209.5,369.5A112.1,112.1,0,0,1,311.3,252.1a101.1,101.1,0,0,0-17.9,11.5c-21.7,17.2-39.2,43.7-49.4,74.6a171.6,171.6,0,0,0-9.1,58.2,18.3,18.3,0,0,1-9-.3C218.2,393.5,211.8,385,209.5,369.5Zm7.2,33.9a26.2,26.2,0,0,0,5.8,2.9,28.6,28.6,0,0,0,13,.9,141.6,141.6,0,0,0,3.6,20.3,96.9,96.9,0,0,0,7.6,20,112.6,112.6,0,0,1-30-44Zm32.8,21.3a1.4,1.4,0,0,0-.2-.6l2.2.8c5.6,1.9,11.6,1.4,18.1-1.4-.5,4.2-.8,8.3-1,12.2a107.5,107.5,0,0,0,1.3,25.3c-9.3-8.4-16.3-20.8-20.4-36.3Zm-8.1,141.5-5-1.7a1.6,1.6,0,0,1-1.1-2.1l6.7-20,6.6,2.2Zm14.8,4.9-4.6-1.5,7.1-21.6,4.6,1.5Zm17.3,3.9a1.6,1.6,0,0,1-2.1,1.1l-5-1.6,7.1-21.6,6.6,2.2Zm18.4-38.4a1.8,1.8,0,0,1,1.1,2.2l-2.3,6.7a1.6,1.6,0,0,1-2.1,1.1l-48.4-16a1.7,1.7,0,0,1-1-2.2l2.2-6.7a1.6,1.6,0,0,1,2.1-1.1Zm-28.8-20.9,5.5-16.7,16,5.3-5.5,16.8Zm41.5-19.1a4.6,4.6,0,0,1-4.6,1.6l-40.1-13.3a4.6,4.6,0,0,1-2.7-4l.5-11.8a122.7,122.7,0,0,0,25.7,12h0a130.9,130.9,0,0,0,27.8,5.8Zm1.7-23.6a108.3,108.3,0,0,0,16.2-19.5c2.1-3.2,4.3-6.7,6.4-10.3,3.6,6.1,8.1,10.1,13.7,11.9l2.2.6a88,88,0,0,1-11.3,7.9,66.4,66.4,0,0,1-27.2,9.4Zm26.7,3.1c2-1,4-2,6-3.2a115.3,115.3,0,0,0,27.2-22.5,26.3,26.3,0,0,0,10.9,7,23.4,23.4,0,0,0,6.4,1.2,111.9,111.9,0,0,1-50.4,17.5Z" style="fill:#fff"/><g style="isolation:isolate"><path d="M480.3,280.5V270.1h28.5v10.4h-9.3v58h-9.9v-58Z" style="fill:#fff"/><path d="M532.1,338.5,527,309.7h-2.6v28.8h-9.9V270.1h9.9c5.9,0,10.1,1.7,12.8,5.1s3.9,8.2,3.9,14.6a30.5,30.5,0,0,1-1.3,9.4,11.3,11.3,0,0,1-4.1,6.2l6.3,33.1Zm-.4-48.3a17.3,17.3,0,0,0-.8-5.7,8.6,8.6,0,0,0-1.9-3,5.5,5.5,0,0,0-2.4-1.2l-2.2-.2v20.3l2.2-.3a3.9,3.9,0,0,0,2.4-1.2,7.1,7.1,0,0,0,1.9-3A17.3,17.3,0,0,0,531.7,290.2Z" style="fill:#fff"/><path d="M548.5,270.1h9.9v68.4h-9.9Z" style="fill:#fff"/><path d="M566.6,270.1h9.8a23,23,0,0,1,6.3,1,14.8,14.8,0,0,1,5.6,3.4,16.2,16.2,0,0,1,3.9,6.3,32.8,32.8,0,0,1,0,19.6,17.8,17.8,0,0,1-3.9,6.3,14.8,14.8,0,0,1-5.6,3.4,19.7,19.7,0,0,1-6.3,1v27.4h-9.8Zm9.8,30.8a9.7,9.7,0,0,0,3.7-.5,3.9,3.9,0,0,0,2.3-1.6,6.7,6.7,0,0,0,1.1-3,32.3,32.3,0,0,0,.3-4.8,32.8,32.8,0,0,0-.3-4.9,7.6,7.6,0,0,0-1.1-3.3,4.7,4.7,0,0,0-2.3-1.8,9.5,9.5,0,0,0-3.7-.6Z" style="fill:#fff"/></g><g style="isolation:isolate"><path d="M484.3,392.6a33.7,33.7,0,0,1,.9-7.7,20.9,20.9,0,0,1,3-7,16.6,16.6,0,0,1,5.5-5,15.6,15.6,0,0,1,8-2c4.1,0,7.3.8,9.8,2.4a16.2,16.2,0,0,1,5.6,6.3,28.9,28.9,0,0,1,2.7,8.3,65.5,65.5,0,0,1,.6,8.6l-13.1,1.2c0-1.6-.1-3.2-.2-4.9a21,21,0,0,0-.8-4.6,9.8,9.8,0,0,0-1.7-3.4,3.2,3.2,0,0,0-2.6-1.2,3.5,3.5,0,0,0-3.6,2.5,17.6,17.6,0,0,0-1,6.6,13.6,13.6,0,0,0,.9,4.8,34.1,34.1,0,0,0,2.4,5.2c1,1.7,2.1,3.6,3.4,5.4l3.8,5.7,4.6,7.1a71.4,71.4,0,0,1,4,7.1,47.6,47.6,0,0,1,2.8,7.1,23.3,23.3,0,0,1,1.1,7.4,42.7,42.7,0,0,1-.8,8.9,21.9,21.9,0,0,1-3,7.5,14.8,14.8,0,0,1-5.7,5.1,18.7,18.7,0,0,1-9,1.9c-4.3,0-7.8-.7-10.3-2.2a15.7,15.7,0,0,1-5.9-6.1A22.9,22.9,0,0,1,483,449a79.8,79.8,0,0,1-.6-9.9l13.1-1.3c0,1.9.1,3.8.2,5.7a18.6,18.6,0,0,0,.9,5,9.1,9.1,0,0,0,1.9,3.5,4.3,4.3,0,0,0,3.4,1.4,4.5,4.5,0,0,0,4.2-2.9,19.8,19.8,0,0,0,1.2-7.4,12.5,12.5,0,0,0-1-4.8,32.6,32.6,0,0,0-2.5-5.4c-1.1-1.8-2.2-3.6-3.5-5.5l-3.8-5.8-4.6-7.1a63.6,63.6,0,0,1-3.9-7.2,52.7,52.7,0,0,1-2.7-7.2A27.6,27.6,0,0,1,484.3,392.6Z" style="fill:#fff"/><path d="M527.6,371.9h30.7V386H541v24.4h12.4v14.9H541v25.6h17.3v14H527.6Z" style="fill:#fff"/><path d="M564.1,464.9l13.7-93h16.4l13.8,93H594.9l-2.4-19H579.6l-2.5,19Zm22.7-62.7-.4-5h-.8l-.3,5-3.9,29.3h9.2Z" style="fill:#fff"/><path d="M614.2,392.6a33.7,33.7,0,0,1,.9-7.7,20.9,20.9,0,0,1,3-7,16.6,16.6,0,0,1,5.5-5,15.6,15.6,0,0,1,8-2c4.1,0,7.3.8,9.8,2.4a16.2,16.2,0,0,1,5.6,6.3,28.9,28.9,0,0,1,2.7,8.3,66.3,66.3,0,0,1,.7,8.6l-13.2,1.2a41,41,0,0,0-.2-4.9,21,21,0,0,0-.8-4.6,9.8,9.8,0,0,0-1.7-3.4,3.2,3.2,0,0,0-2.6-1.2,3.5,3.5,0,0,0-3.6,2.5,17.6,17.6,0,0,0-1,6.6,13.6,13.6,0,0,0,.9,4.8,47.4,47.4,0,0,0,2.4,5.2c1,1.7,2.2,3.6,3.4,5.4l3.8,5.7,4.6,7.1a71.4,71.4,0,0,1,4,7.1,47.6,47.6,0,0,1,2.8,7.1,23.4,23.4,0,0,1,1.2,7.4,42.6,42.6,0,0,1-.9,8.9,21.9,21.9,0,0,1-3,7.5,14.8,14.8,0,0,1-5.7,5.1,18.7,18.7,0,0,1-9,1.9c-4.3,0-7.8-.7-10.3-2.2a15.7,15.7,0,0,1-5.9-6.1,22.9,22.9,0,0,1-2.7-8.6,79.8,79.8,0,0,1-.6-9.9l13.1-1.3c0,1.9.1,3.8.2,5.7a18.6,18.6,0,0,0,.9,5,9.1,9.1,0,0,0,1.9,3.5,4.6,4.6,0,0,0,7.6-1.5,19.8,19.8,0,0,0,1.2-7.4,12.5,12.5,0,0,0-1-4.8,32.6,32.6,0,0,0-2.5-5.4c-1.1-1.8-2.2-3.6-3.5-5.5l-3.8-5.8-4.6-7.1q-2.1-3.6-3.9-7.2a52.7,52.7,0,0,1-2.7-7.2A27.6,27.6,0,0,1,614.2,392.6Z" style="fill:#fff"/><path d="M693.2,445.8a26.3,26.3,0,0,1-2.2,10.1,20,20,0,0,1-2.2,3.7,15.6,15.6,0,0,1-3.1,3.2,15.3,15.3,0,0,1-4.4,2.3,21,21,0,0,1-5.9.8,22.3,22.3,0,0,1-6-.8,14.1,14.1,0,0,1-4.4-2.3,13.4,13.4,0,0,1-3.1-3.2,19.5,19.5,0,0,1-2.1-3.7,26.3,26.3,0,0,1-2.3-10.1V391a26.7,26.7,0,0,1,2.3-10,23.2,23.2,0,0,1,2.1-3.7,11.8,11.8,0,0,1,3.1-3.2,16.6,16.6,0,0,1,4.4-2.3,18.9,18.9,0,0,1,6-.9,17.8,17.8,0,0,1,5.9.9,18.3,18.3,0,0,1,4.4,2.3,13.4,13.4,0,0,1,3.1,3.2A24,24,0,0,1,691,381a26.6,26.6,0,0,1,2.2,10ZM679.9,391a12.1,12.1,0,0,0-.5-3.4,7.6,7.6,0,0,0-1.3-2.3,3.7,3.7,0,0,0-2.7-1.1,3.4,3.4,0,0,0-2.7,1.1,7.6,7.6,0,0,0-1.3,2.3,12.1,12.1,0,0,0-.5,3.4v54.8a10.6,10.6,0,0,0,.5,3.4,7,7,0,0,0,1.3,2.4,3.3,3.3,0,0,0,2.7,1,3.6,3.6,0,0,0,2.7-1,7,7,0,0,0,1.3-2.4,10.6,10.6,0,0,0,.5-3.4Z" style="fill:#fff"/><path d="M716.4,416.5l-1.1-4.3h-.7v52.7H702.3v-93h11.9l13,48.5,1.1,4.3h.8V371.9h12.2v93H729.4Z" style="fill:#fff"/></g><g style="isolation:isolate"><path d="M500.1,568.5l-6.3-43-.3-2.9h-.6v45.9h-9.1V500.1h12l5.9,31.3.4,3.6h.2l.5-3.6,5.8-31.3h12v68.4h-9.1V522.6H511l-.4,2.9-6.3,43Z" style="fill:#fff"/></g><g style="isolation:isolate"><path d="M526.7,568.5l10.2-68.4h12L559,568.5h-9.6l-1.8-14h-9.5l-1.8,14Zm16.7-46.1-.3-3.7h-.5l-.3,3.7-2.8,21.5h6.7Z" style="fill:#fff"/><path d="M565.1,500.1H575a21.7,21.7,0,0,1,6.2,1,14.1,14.1,0,0,1,5.6,3.4,17.1,17.1,0,0,1,4,6.3,32.8,32.8,0,0,1,0,19.6,17.1,17.1,0,0,1-4,6.3,13,13,0,0,1-5.6,3.4,18.8,18.8,0,0,1-6.2,1.1v27.3h-9.9Zm9.9,30.8a13.1,13.1,0,0,0,3.7-.4,5,5,0,0,0,2.3-1.7,7.5,7.5,0,0,0,1.1-3,34,34,0,0,0,.2-4.8,35.5,35.5,0,0,0-.2-4.9,9.9,9.9,0,0,0-1.1-3.3,5.2,5.2,0,0,0-2.3-1.8,9.9,9.9,0,0,0-3.7-.6Z" style="fill:#fff"/></g></svg>